<?xml version="1.0" standalone="no"?>
<!DOCTYPE svg PUBLIC "-//W3C//DTD SVG 20010904//EN"
 "http://www.w3.org/TR/2001/REC-SVG-20010904/DTD/svg10.dtd">
<svg version="1.0" xmlns="http://www.w3.org/2000/svg"
 width="512.000000pt" height="512.000000pt" viewBox="0 0 512.000000 512.000000"
 preserveAspectRatio="xMidYMid meet">

<g transform="translate(0.000000,512.000000) scale(0.100000,-0.100000)"
fill="#000000" stroke="none">
<path d="M2443 5106 c-226 -55 -393 -264 -393 -493 0 -143 49 -262 150 -363
104 -105 213 -150 360 -150 148 0 256 45 360 150 200 202 201 516 0 719 -122
124 -309 177 -477 137z"/>
<path d="M2433 3055 c-271 -73 -437 -352 -368 -618 100 -383 570 -516 851
-242 285 279 155 759 -232 860 -72 18 -182 18 -251 0z"/>
<path d="M2421 1004 c-171 -46 -324 -208 -360 -382 -77 -370 252 -693 618
-607 321 76 483 433 333 735 -33 68 -140 176 -208 212 -106 57 -265 74 -383
42z"/>
</g>
</svg>
